<svg width="35" height="35" viewBox="0 0 35 35" fill="none" xmlns="http://www.w3.org/2000/svg">
<rect width="35" height="35" rx="6" fill="#2B378D" fill-opacity="0.1"/>
<path d="M17.5012 26.25C16.0906 26.25 15.0012 25.5208 15.0012 24.1667H20.0012C20.0012 25.5208 18.9118 26.25 17.5012 26.25ZM22.4962 19.758C22.4962 21.1866 24.2857 21.5438 24.2857 22.258C24.2857 22.9723 23.9286 23.3295 22.5 23.3295H12.5C11.0714 23.3295 10.7143 22.9723 10.7143 22.258C10.7143 21.5438 12.5 21.1866 12.5 19.758V17.258C12.5 13.6866 13.9286 10.7143 16.7857 10.7143C16.7857 10.1786 17.1429 10 17.5 10C17.8572 10 18.2143 10.1786 18.2143 10.7143C21.0714 10.7143 22.4962 13.6866 22.4962 17.258V19.758Z" fill="#2B378D"/>
</svg>
