<svg width="18" height="18" viewBox="0 0 18 18" fill="none" xmlns="http://www.w3.org/2000/svg">
<path fill-rule="evenodd" clip-rule="evenodd" d="M9.35478 1.49995C9.57951 1.49967 9.79458 1.4994 10.0042 1.54972C10.1879 1.59382 10.3634 1.66654 10.5245 1.76524C10.7083 1.87787 10.8602 2.03014 11.0189 2.18924L14.3107 5.48112L14.3108 5.48113C14.4698 5.63983 14.6221 5.79171 14.7347 5.97551C14.8334 6.13656 14.9062 6.31214 14.9502 6.4958C15.0006 6.70541 15.0003 6.92047 15 7.14519L15 11.6538C15 12.3645 15 12.9388 14.962 13.4041C14.9228 13.8836 14.8399 14.3064 14.6403 14.6982C14.3239 15.3191 13.8191 15.824 13.1982 16.1404C12.8064 16.34 12.3835 16.4229 11.9041 16.462C11.4387 16.5 10.8644 16.5 10.1538 16.5H7.84619C7.13557 16.5 6.56125 16.5 6.09594 16.462C5.61647 16.4229 5.19361 16.34 4.80183 16.1404C4.1809 15.824 3.67606 15.3191 3.35968 14.6982C3.16006 14.3064 3.07718 13.8836 3.03801 13.4041C2.99999 12.9388 2.99999 12.3645 3 11.6538V6.34623C2.99999 5.6356 2.99999 5.06128 3.03801 4.59597C3.07718 4.1165 3.16006 3.69364 3.35968 3.30186C3.67606 2.68093 4.1809 2.17609 4.80183 1.85971C5.19361 1.66009 5.61647 1.57721 6.09594 1.53804C6.56126 1.50002 7.13557 1.50002 7.8462 1.50003L9.35478 1.49995ZM7.875 2.85L9 2.84999V4.45157C8.99999 4.84896 8.99998 5.18736 9.02268 5.46518C9.04653 5.75705 9.09875 6.04099 9.23706 6.31244C9.44559 6.72169 9.77832 7.05443 10.1876 7.26295C10.459 7.40126 10.743 7.45349 11.0348 7.47733C11.3127 7.50003 11.651 7.50002 12.0484 7.50001H12.0484H12.0484L13.65 7.50001V10.875L13.65 11.625C13.65 12.3712 13.6495 12.8903 13.6165 13.2942C13.5841 13.6901 13.524 13.9156 13.4375 14.0853C13.2505 14.4522 12.9522 14.7505 12.5853 14.9375C12.4155 15.024 12.1901 15.0842 11.7941 15.1165C11.3903 15.1495 10.8712 15.15 10.125 15.15H7.875C7.12879 15.15 6.60973 15.1495 6.20587 15.1165C5.80989 15.0842 5.58446 15.024 5.41472 14.9375C5.0478 14.7505 4.74949 14.4522 4.56254 14.0853C4.47605 13.9156 4.41588 13.6901 4.38352 13.2942C4.35053 12.8903 4.35 12.3712 4.35 11.625V6.37503C4.35 5.62882 4.35053 5.10976 4.38352 4.7059C4.41588 4.30992 4.47605 4.08449 4.56254 3.91475C4.74949 3.54783 5.0478 3.24952 5.41472 3.06257C5.58446 2.97608 5.80989 2.91591 6.20587 2.88355C6.60974 2.85056 7.12879 2.85 7.875 2.85ZM10.35 3.4296L13.0704 6.15001H12.075C11.6438 6.15001 11.361 6.14949 11.1448 6.13182C10.9364 6.11479 10.8499 6.08527 10.8005 6.06009C10.6452 5.981 10.519 5.85479 10.4399 5.69956C10.4147 5.65014 10.3852 5.56363 10.3682 5.35524C10.3505 5.13898 10.35 4.85619 10.35 4.42501V3.4296ZM5.99799 12.8282C5.99799 12.4554 6.30019 12.1532 6.67299 12.1532H9.07171C9.44451 12.1532 9.74671 12.4554 9.74671 12.8282C9.74671 13.201 9.44451 13.5032 9.07171 13.5032H6.67299C6.30019 13.5032 5.99799 13.201 5.99799 12.8282ZM6.67299 9.7484C6.30019 9.7484 5.99799 10.0506 5.99799 10.4234C5.99799 10.7962 6.30019 11.0984 6.67299 11.0984H10.5708C10.9436 11.0984 11.2458 10.7962 11.2458 10.4234C11.2458 10.0506 10.9436 9.7484 10.5708 9.7484L6.67299 9.7484Z" fill="white"/>
</svg>
