<svg width="18" height="18" viewBox="0 0 18 18" fill="none" xmlns="http://www.w3.org/2000/svg">
<path fill-rule="evenodd" clip-rule="evenodd" d="M5.70001 15.675L5.72501 15.675C6.01861 15.675 6.27853 15.675 6.49388 15.6574C6.72322 15.6387 6.96086 15.5967 7.1922 15.4788C7.53089 15.3063 7.80625 15.0309 7.97883 14.6922C8.0967 14.4609 8.13871 14.2232 8.15745 13.9939C8.17504 13.7785 8.17503 13.5187 8.17502 13.225L8.17501 13.2V4.80002L8.17502 4.77501C8.17503 4.48139 8.17504 4.22152 8.15745 4.00615C8.13871 3.77681 8.0967 3.53917 7.97883 3.30783C7.80625 2.96914 7.53089 2.69378 7.1922 2.5212C6.96086 2.40333 6.72322 2.36132 6.49388 2.34258C6.27853 2.32499 6.01868 2.325 5.72507 2.32501L5.70001 2.32501H4.80001L4.77501 2.32501C4.48141 2.325 4.2215 2.32499 4.00615 2.34258C3.77681 2.36132 3.53917 2.40333 3.30783 2.5212C2.96914 2.69377 2.69377 2.96914 2.5212 3.30783C2.40333 3.53917 2.36132 3.77681 2.34258 4.00615C2.32499 4.2215 2.325 4.48135 2.32501 4.77496L2.32501 4.80001L2.32501 13.2L2.32501 13.225C2.325 13.5186 2.32499 13.7785 2.34258 13.9939C2.36132 14.2232 2.40333 14.4609 2.5212 14.6922C2.69377 15.0309 2.96914 15.3063 3.30783 15.4788C3.53917 15.5967 3.77681 15.6387 4.00615 15.6574C4.2215 15.675 4.48134 15.675 4.77494 15.675L4.80001 15.675H5.70001ZM6.57931 14.276C6.57 14.2807 6.5298 14.3 6.38395 14.3119C6.23021 14.3245 6.02618 14.325 5.70001 14.325H4.80001C4.47385 14.325 4.26982 14.3245 4.11608 14.3119C3.97023 14.3 3.93003 14.2807 3.92072 14.276C3.83605 14.2328 3.7672 14.164 3.72406 14.0793C3.71932 14.07 3.70002 14.0298 3.6881 13.8839C3.67554 13.7302 3.67501 13.5262 3.67501 13.2L3.67501 4.80001C3.67501 4.47385 3.67554 4.26982 3.6881 4.11608C3.70002 3.97023 3.71932 3.93003 3.72406 3.92072C3.7672 3.83605 3.83605 3.7672 3.92072 3.72406C3.93003 3.71932 3.97023 3.70002 4.11608 3.6881C4.26982 3.67554 4.47385 3.67501 4.80001 3.67501H5.70001C6.02618 3.67501 6.23021 3.67554 6.38395 3.6881C6.5298 3.70002 6.57 3.71932 6.57931 3.72406C6.66398 3.7672 6.73282 3.83605 6.77597 3.92072C6.78071 3.93003 6.80001 3.97023 6.81193 4.11608C6.82449 4.26982 6.82501 4.47385 6.82501 4.80001L6.82501 13.2C6.82501 13.5262 6.82449 13.7302 6.81193 13.8839C6.80001 14.0298 6.78071 14.07 6.77597 14.0793C6.73282 14.164 6.66398 14.2328 6.57931 14.276ZM13.225 8.17502L13.2 8.17501H12.3L12.275 8.17502C11.9814 8.17503 11.7215 8.17504 11.5061 8.15745C11.2768 8.13871 11.0392 8.0967 10.8078 7.97883C10.4691 7.80625 10.1938 7.53089 10.0212 7.1922C9.90333 6.96086 9.86132 6.72322 9.84258 6.49388C9.82499 6.27851 9.825 6.01865 9.82501 5.72502L9.82501 5.70001V4.80001L9.82501 4.77501C9.825 4.48138 9.82499 4.22152 9.84258 4.00615C9.86132 3.77681 9.90333 3.53917 10.0212 3.30783C10.1938 2.96914 10.4691 2.69377 10.8078 2.5212C11.0392 2.40333 11.2768 2.36132 11.5062 2.34258C11.7215 2.32499 11.9814 2.325 12.275 2.32501L12.3 2.32501L13.2 2.32501L13.225 2.32501C13.5186 2.325 13.7785 2.32499 13.9939 2.34258C14.2232 2.36132 14.4609 2.40333 14.6922 2.5212C15.0309 2.69377 15.3063 2.96914 15.4788 3.30783C15.5967 3.53917 15.6387 3.77681 15.6574 4.00615C15.675 4.22152 15.675 4.48138 15.675 4.77501L15.675 4.80001V5.70002L15.675 5.72501C15.675 6.01864 15.675 6.27851 15.6574 6.49388C15.6387 6.72322 15.5967 6.96086 15.4788 7.1922C15.3063 7.53089 15.0309 7.80625 14.6922 7.97883C14.4609 8.0967 14.2232 8.13871 13.9939 8.15745C13.7785 8.17504 13.5186 8.17503 13.225 8.17502ZM13.8839 6.81193C14.0298 6.80001 14.07 6.78071 14.0793 6.77597C14.164 6.73282 14.2328 6.66398 14.276 6.57931C14.2807 6.57 14.3 6.5298 14.3119 6.38395C14.3245 6.23021 14.325 6.02618 14.325 5.70001V4.80001C14.325 4.47385 14.3245 4.26982 14.3119 4.11608C14.3 3.97023 14.2807 3.93003 14.276 3.92072C14.2328 3.83605 14.164 3.7672 14.0793 3.72406C14.07 3.71932 14.0298 3.70002 13.8839 3.6881C13.7302 3.67554 13.5262 3.67501 13.2 3.67501H12.3C11.9738 3.67501 11.7698 3.67554 11.6161 3.6881C11.4702 3.70002 11.43 3.71932 11.4207 3.72406C11.336 3.7672 11.2672 3.83605 11.2241 3.92072C11.2193 3.93003 11.2 3.97023 11.1881 4.11608C11.1755 4.26982 11.175 4.47385 11.175 4.80001V5.70001C11.175 6.02618 11.1755 6.23021 11.1881 6.38395C11.2 6.5298 11.2193 6.57 11.2241 6.57931C11.2672 6.66398 11.336 6.73282 11.4207 6.77597C11.43 6.78071 11.4702 6.80001 11.6161 6.81193C11.7698 6.82449 11.9738 6.82501 12.3 6.82501L13.2 6.82501C13.5262 6.82501 13.7302 6.82449 13.8839 6.81193ZM13.2 15.675L13.225 15.675C13.5186 15.675 13.7785 15.675 13.9939 15.6574C14.2232 15.6387 14.4609 15.5967 14.6922 15.4788C15.0309 15.3063 15.3063 15.0309 15.4788 14.6922C15.5967 14.4609 15.6387 14.2232 15.6574 13.9939C15.675 13.7785 15.675 13.5186 15.675 13.225L15.675 13.2V12.3L15.675 12.275C15.675 11.9814 15.675 11.7215 15.6574 11.5062C15.6387 11.2768 15.5967 11.0392 15.4788 10.8078C15.3063 10.4691 15.0309 10.1938 14.6922 10.0212C14.4609 9.90333 14.2232 9.86132 13.9939 9.84258C13.7785 9.82499 13.5187 9.825 13.2251 9.82501L13.2 9.82501H12.3L12.275 9.82501C11.9814 9.825 11.7215 9.82499 11.5062 9.84258C11.2768 9.86132 11.0392 9.90333 10.8078 10.0212C10.4691 10.1938 10.1938 10.4691 10.0212 10.8078C9.90333 11.0392 9.86132 11.2768 9.84258 11.5061C9.82499 11.7215 9.825 11.9814 9.82501 12.275L9.82501 12.3V13.2L9.82501 13.225C9.825 13.5186 9.82499 13.7785 9.84258 13.9939C9.86132 14.2232 9.90333 14.4609 10.0212 14.6922C10.1938 15.0309 10.4691 15.3063 10.8078 15.4788C11.0392 15.5967 11.2768 15.6387 11.5061 15.6574C11.7215 15.675 11.9813 15.675 12.2749 15.675L12.3 15.675H13.2ZM14.0793 14.276C14.07 14.2807 14.0298 14.3 13.8839 14.3119C13.7302 14.3245 13.5262 14.325 13.2 14.325H12.3C11.9738 14.325 11.7698 14.3245 11.6161 14.3119C11.4702 14.3 11.43 14.2807 11.4207 14.276C11.336 14.2328 11.2672 14.164 11.2241 14.0793C11.2193 14.07 11.2 14.0298 11.1881 13.8839C11.1755 13.7302 11.175 13.5262 11.175 13.2V12.3C11.175 11.9738 11.1755 11.7698 11.1881 11.6161C11.2 11.4702 11.2193 11.43 11.2241 11.4207C11.2672 11.336 11.336 11.2672 11.4207 11.2241C11.43 11.2193 11.4702 11.2 11.6161 11.1881C11.7698 11.1755 11.9738 11.175 12.3 11.175H13.2C13.5262 11.175 13.7302 11.1755 13.8839 11.1881C14.0298 11.2 14.07 11.2193 14.0793 11.2241C14.164 11.2672 14.2328 11.336 14.276 11.4207C14.2807 11.43 14.3 11.4702 14.3119 11.6161C14.3245 11.7698 14.325 11.9738 14.325 12.3V13.2C14.325 13.5262 14.3245 13.7302 14.3119 13.8839C14.3 14.0298 14.2807 14.07 14.276 14.0793C14.2328 14.164 14.164 14.2328 14.0793 14.276Z" fill="white"/>
</svg>
