<svg width="18" height="18" viewBox="0 0 18 18" fill="none" xmlns="http://www.w3.org/2000/svg">
<path d="M9.93809 5.62527C10.6116 5.62535 11.1571 6.17081 11.157 6.84417C11.1569 7.51753 10.6113 8.06285 9.9378 8.06277C9.26427 8.06269 8.71882 7.51724 8.7189 6.84388C8.71898 6.17052 9.26456 5.62519 9.93809 5.62527Z" fill="white"/>
<path d="M7.49946 10.1938L7.49949 9.89061C7.49962 8.8242 9.12403 8.51971 9.93774 8.51981C10.7515 8.5199 12.3758 8.82478 12.3757 9.89119L12.3756 10.1944C12.3756 10.3635 12.2385 10.5005 12.0693 10.5005L7.8057 10.5C7.63655 10.5 7.49944 10.3629 7.49946 10.1938Z" fill="white"/>
<path fill-rule="evenodd" clip-rule="evenodd" d="M7.325 3H12.55C12.8436 2.99999 13.1035 2.99998 13.3189 3.01757C13.5482 3.03631 13.7858 3.07832 14.0172 3.19619C14.3559 3.36876 14.6312 3.64413 14.8038 3.98282C14.9217 4.21416 14.9637 4.4518 14.9824 4.68114C15 4.89645 15 5.15625 15 5.44979V10.675C15 10.9686 15 11.2286 14.9824 11.4439C14.9637 11.6732 14.9217 11.9108 14.8038 12.1422C14.6312 12.4809 14.3559 12.7562 14.0172 12.9288C13.7858 13.0467 13.5482 13.0887 13.3189 13.1074C13.1035 13.125 12.8437 13.125 12.5501 13.125H7.325C7.0314 13.125 6.77148 13.125 6.55614 13.1074C6.3268 13.0887 6.08916 13.0467 5.85782 12.9288C5.51913 12.7562 5.24376 12.4809 5.07119 12.1422C4.95332 11.9108 4.91131 11.6732 4.89257 11.4439C4.87497 11.2285 4.87499 10.9686 4.875 10.675V5.45C4.87499 5.15637 4.87497 4.8965 4.89257 4.68114C4.91131 4.4518 4.95332 4.21416 5.07119 3.98282C5.24376 3.64413 5.51913 3.36876 5.85782 3.19619C6.08916 3.07832 6.3268 3.03631 6.55614 3.01757C6.77149 2.99998 7.03138 2.99999 7.325 3ZM6.66607 4.36309C6.52022 4.375 6.48001 4.39431 6.47071 4.39905C6.38603 4.44219 6.31719 4.51103 6.27405 4.59571C6.2693 4.60502 6.25 4.64522 6.23809 4.79107C6.22553 4.9448 6.225 5.14883 6.225 5.475V10.65C6.225 10.9762 6.22553 11.1802 6.23809 11.3339C6.25 11.4798 6.2693 11.52 6.27405 11.5293C6.31719 11.614 6.38603 11.6828 6.47071 11.726C6.48002 11.7307 6.52022 11.75 6.66607 11.7619C6.8198 11.7745 7.02383 11.775 7.35 11.775H12.525C12.8512 11.775 13.0552 11.7745 13.2089 11.7619C13.3548 11.75 13.395 11.7307 13.4043 11.726C13.489 11.6828 13.5578 11.614 13.601 11.5293C13.6057 11.52 13.625 11.4798 13.6369 11.3339C13.6495 11.1802 13.65 10.9762 13.65 10.65V5.475C13.65 5.14883 13.6495 4.9448 13.6369 4.79107C13.625 4.64522 13.6057 4.60502 13.601 4.59571C13.5578 4.51103 13.489 4.44219 13.4043 4.39905C13.395 4.39431 13.3548 4.375 13.2089 4.36309C13.0552 4.35053 12.8512 4.35 12.525 4.35H7.35C7.02383 4.35 6.8198 4.35053 6.66607 4.36309Z" fill="white"/>
<path d="M3.6 5.32497V10.875C3.6 11.6212 3.60053 12.1402 3.63352 12.5441C3.66588 12.9401 3.72605 13.1655 3.81254 13.3352C3.99949 13.7022 4.2978 14.0005 4.66472 14.1874C4.83446 14.2739 5.05989 14.3341 5.45587 14.3664C5.85973 14.3994 6.37879 14.4 7.125 14.4H12.675C12.675 15.1455 12.0706 15.75 11.325 15.75H7.09619C6.38557 15.75 5.81125 15.75 5.34594 15.712C4.86647 15.6728 4.44361 15.5899 4.05183 15.3903C3.4309 15.0739 2.92606 14.5691 2.60968 13.9481C2.41006 13.5564 2.32718 13.1335 2.28801 12.654C2.24999 12.1887 2.24999 11.6144 2.25 10.9038V6.67496C2.25 5.92938 2.85442 5.32497 3.6 5.32497Z" fill="white"/>
</svg>
