<svg width="18" height="18" viewBox="0 0 18 18" fill="none" xmlns="http://www.w3.org/2000/svg">
<path fill-rule="evenodd" clip-rule="evenodd" d="M10.3458 3.51759L10.3635 3.49991L10.9999 2.86351L11.0176 2.84583C11.2252 2.6382 11.4089 2.45443 11.5737 2.31459C11.7491 2.16567 11.9468 2.02734 12.1938 1.94711C12.5553 1.82964 12.9447 1.82964 13.3062 1.94711C13.5532 2.02734 13.7509 2.16567 13.9263 2.31459C14.091 2.45443 14.2748 2.6382 14.4824 2.84583L14.5001 2.86351L15.1365 3.49991L15.1542 3.51759L15.1542 3.51762C15.3618 3.72523 15.5456 3.90896 15.6854 4.07368C15.8343 4.2491 15.9726 4.44684 16.0529 4.69377C16.1703 5.05529 16.1703 5.44471 16.0529 5.80623C15.9726 6.05316 15.8343 6.2509 15.6854 6.42632C15.5456 6.59105 15.3618 6.77479 15.1542 6.98241L15.1365 7.00009L14.5001 7.63648L14.4824 7.65416C14.2748 7.8618 14.091 8.04556 13.9263 8.18541C13.7509 8.33433 13.5532 8.47266 13.3062 8.55289C12.9447 8.67036 12.5553 8.67036 12.1938 8.55289C11.9468 8.47266 11.7491 8.33433 11.5737 8.18541C11.4089 8.04556 11.2252 7.8618 11.0176 7.65416L10.9999 7.63648L10.3635 7.00009L10.3458 6.98241L10.3458 6.9824L10.3458 6.98237C10.1382 6.77477 9.95441 6.59104 9.81458 6.42632C9.66566 6.2509 9.52733 6.05316 9.4471 5.80623C9.32963 5.44471 9.32963 5.05529 9.4471 4.69377C9.52733 4.44684 9.66566 4.2491 9.81458 4.07368C9.95442 3.90895 10.1382 3.72521 10.3458 3.51759L10.3458 3.51759ZM10.8437 4.94737C10.749 5.05893 10.7343 5.101 10.731 5.11094C10.7017 5.20132 10.7017 5.29868 10.731 5.38906C10.7343 5.39899 10.749 5.44107 10.8437 5.55263C10.9436 5.67022 11.0875 5.81486 11.3181 6.04549L11.9545 6.68189C12.1851 6.91253 12.3298 7.05643 12.4474 7.15625C12.5589 7.25096 12.601 7.26574 12.6109 7.26896C12.7013 7.29833 12.7987 7.29833 12.889 7.26896C12.899 7.26574 12.9411 7.25096 13.0526 7.15625C13.1702 7.05643 13.3148 6.91253 13.5455 6.68189L14.1819 6.04549C14.4125 5.81486 14.5564 5.67022 14.6562 5.55263C14.7509 5.44107 14.7657 5.39899 14.769 5.38906C14.7983 5.29868 14.7983 5.20132 14.769 5.11094C14.7657 5.101 14.7509 5.05893 14.6562 4.94737C14.5564 4.82978 14.4125 4.68514 14.1819 4.4545L13.5455 3.81811C13.3148 3.58747 13.1702 3.44357 13.0526 3.34375C12.9411 3.24904 12.899 3.23426 12.889 3.23103C12.7987 3.20167 12.7013 3.20167 12.6109 3.23103C12.601 3.23426 12.5589 3.24904 12.4474 3.34375C12.3298 3.44357 12.1851 3.58747 11.9545 3.81811L11.3181 4.4545C11.0875 4.68514 10.9436 4.82978 10.8437 4.94737ZM5.70001 8.175L5.72501 8.175C6.01864 8.17501 6.27851 8.17503 6.49388 8.15743C6.72322 8.13869 6.96086 8.09668 7.1922 7.97881C7.53089 7.80624 7.80625 7.53087 7.97883 7.19218C8.0967 6.96084 8.13871 6.7232 8.15745 6.49386C8.17504 6.2785 8.17503 6.01864 8.17502 5.72502V5.72501V5.72501V5.725L8.17501 5.7V4.8L8.17502 4.775C8.17503 4.48137 8.17504 4.2215 8.15745 4.00613C8.13871 3.7768 8.0967 3.53916 7.97883 3.30782C7.80625 2.96912 7.53089 2.69376 7.1922 2.52119C6.96086 2.40331 6.72322 2.36131 6.49388 2.34257C6.27851 2.32497 6.01865 2.32498 5.72502 2.325H5.72502L5.70001 2.325L4.80001 2.325L4.77501 2.325H4.77501C4.48138 2.32498 4.22151 2.32497 4.00615 2.34257C3.77681 2.36131 3.53917 2.40331 3.30783 2.52119C2.96914 2.69376 2.69377 2.96912 2.5212 3.30782C2.40333 3.53916 2.36132 3.7768 2.34258 4.00613C2.32499 4.22149 2.325 4.48134 2.32501 4.77495V4.775L2.32501 4.8L2.32501 5.7L2.32501 5.725V5.72505C2.325 6.01866 2.32499 6.27851 2.34258 6.49386C2.36132 6.7232 2.40333 6.96084 2.5212 7.19218C2.69377 7.53087 2.96914 7.80624 3.30783 7.97881C3.53917 8.09668 3.77681 8.13869 4.00615 8.15743C4.22152 8.17503 4.48138 8.17501 4.77501 8.175L4.80001 8.175H5.70001ZM6.57931 6.77595C6.57 6.7807 6.5298 6.8 6.38395 6.81191C6.23021 6.82447 6.02618 6.825 5.70001 6.825H4.80001C4.47385 6.825 4.26982 6.82447 4.11608 6.81191C3.97023 6.8 3.93003 6.78069 3.92072 6.77595C3.83605 6.73281 3.7672 6.66397 3.72406 6.57929C3.71932 6.56998 3.70002 6.52978 3.6881 6.38393C3.67554 6.2302 3.67501 6.02617 3.67501 5.7L3.67501 4.8C3.67501 4.47383 3.67554 4.2698 3.6881 4.11607C3.70002 3.97021 3.71932 3.93001 3.72406 3.9207C3.7672 3.83603 3.83605 3.76719 3.92072 3.72405C3.93003 3.7193 3.97023 3.7 4.11608 3.68808C4.26982 3.67552 4.47385 3.675 4.80001 3.675H5.70001C6.02618 3.675 6.23021 3.67552 6.38395 3.68808C6.5298 3.7 6.57 3.7193 6.57931 3.72405C6.66398 3.76719 6.73282 3.83603 6.77597 3.9207C6.78071 3.93001 6.80001 3.97021 6.81193 4.11607C6.82449 4.2698 6.82501 4.47383 6.82501 4.8L6.82501 5.7C6.82501 6.02617 6.82449 6.2302 6.81193 6.38393C6.80001 6.52978 6.78071 6.56999 6.77597 6.57929C6.73282 6.66397 6.66398 6.73281 6.57931 6.77595ZM5.70001 15.675L5.72501 15.675H5.72509C6.01869 15.675 6.27853 15.675 6.49388 15.6574C6.72322 15.6387 6.96086 15.5967 7.1922 15.4788C7.53089 15.3062 7.80625 15.0309 7.97883 14.6922C8.0967 14.4608 8.13871 14.2232 8.15745 13.9939C8.17504 13.7785 8.17503 13.5186 8.17502 13.225V13.225V13.225V13.225L8.17501 13.2V12.3L8.17502 12.275C8.17503 11.9814 8.17504 11.7215 8.15745 11.5061C8.13871 11.2768 8.0967 11.0392 7.97883 10.8078C7.80625 10.4691 7.53089 10.1938 7.1922 10.0212C6.96086 9.90331 6.72322 9.86131 6.49388 9.84257C6.27853 9.82497 6.01868 9.82499 5.72507 9.825H5.72507H5.72506H5.72502L5.70001 9.825H4.80001L4.77501 9.825H4.77497H4.77496H4.77496C4.48135 9.82499 4.2215 9.82497 4.00615 9.84257C3.77681 9.86131 3.53917 9.90331 3.30783 10.0212C2.96914 10.1938 2.69377 10.4691 2.5212 10.8078C2.40333 11.0392 2.36132 11.2768 2.34258 11.5061C2.32499 11.7215 2.325 11.9813 2.32501 12.2749V12.275L2.32501 12.3L2.32501 13.2L2.32501 13.225V13.225C2.325 13.5187 2.32499 13.7785 2.34258 13.9939C2.36132 14.2232 2.40333 14.4608 2.5212 14.6922C2.69377 15.0309 2.96914 15.3062 3.30783 15.4788C3.53917 15.5967 3.77681 15.6387 4.00615 15.6574C4.2215 15.675 4.48134 15.675 4.77494 15.675H4.77501L4.80001 15.675H5.70001ZM6.57931 14.276C6.57 14.2807 6.5298 14.3 6.38395 14.3119C6.23021 14.3245 6.02618 14.325 5.70001 14.325H4.80001C4.47385 14.325 4.26982 14.3245 4.11608 14.3119C3.97023 14.3 3.93003 14.2807 3.92072 14.276C3.83605 14.2328 3.7672 14.164 3.72406 14.0793C3.71932 14.07 3.70002 14.0298 3.6881 13.8839C3.67554 13.7302 3.67501 13.5262 3.67501 13.2L3.67501 12.3C3.67501 11.9738 3.67554 11.7698 3.6881 11.6161C3.70002 11.4702 3.71932 11.43 3.72406 11.4207C3.7672 11.336 3.83605 11.2672 3.92072 11.224C3.93003 11.2193 3.97023 11.2 4.11608 11.1881C4.26982 11.1755 4.47385 11.175 4.80001 11.175H5.70001C6.02618 11.175 6.23021 11.1755 6.38395 11.1881C6.5298 11.2 6.57 11.2193 6.57931 11.224C6.66398 11.2672 6.73282 11.336 6.77597 11.4207C6.78071 11.43 6.80001 11.4702 6.81193 11.6161C6.82449 11.7698 6.82501 11.9738 6.82501 12.3L6.82501 13.2C6.82501 13.5262 6.82449 13.7302 6.81193 13.8839C6.80001 14.0298 6.78071 14.07 6.77597 14.0793C6.73282 14.164 6.66398 14.2328 6.57931 14.276ZM13.2 15.675L13.225 15.675H13.2251C13.5187 15.675 13.7785 15.675 13.9939 15.6574C14.2232 15.6387 14.4609 15.5967 14.6922 15.4788C15.0309 15.3062 15.3063 15.0309 15.4788 14.6922C15.5967 14.4608 15.6387 14.2232 15.6574 13.9939C15.675 13.7785 15.675 13.5186 15.675 13.225L15.675 13.2V12.3L15.675 12.275C15.675 11.9814 15.675 11.7215 15.6574 11.5061C15.6387 11.2768 15.5967 11.0392 15.4788 10.8078C15.3063 10.4691 15.0309 10.1938 14.6922 10.0212C14.4609 9.90331 14.2232 9.86131 13.9939 9.84257C13.7785 9.82497 13.5187 9.82498 13.2251 9.825H13.225L13.2 9.825H12.3L12.275 9.825H12.275C11.9814 9.82498 11.7215 9.82497 11.5062 9.84257C11.2768 9.86131 11.0392 9.90331 10.8078 10.0212C10.4691 10.1938 10.1938 10.4691 10.0212 10.8078C9.90333 11.0392 9.86132 11.2768 9.84258 11.5061C9.82499 11.7215 9.825 11.9814 9.82501 12.275L9.82501 12.3V13.2L9.82501 13.225C9.825 13.5186 9.82499 13.7785 9.84258 13.9939C9.86132 14.2232 9.90333 14.4608 10.0212 14.6922C10.1938 15.0309 10.4691 15.3062 10.8078 15.4788C11.0392 15.5967 11.2768 15.6387 11.5061 15.6574C11.7215 15.675 11.9813 15.675 12.2749 15.675H12.275L12.3 15.675H13.2ZM14.0793 14.276C14.07 14.2807 14.0298 14.3 13.8839 14.3119C13.7302 14.3245 13.5262 14.325 13.2 14.325H12.3C11.9738 14.325 11.7698 14.3245 11.6161 14.3119C11.4702 14.3 11.43 14.2807 11.4207 14.276C11.336 14.2328 11.2672 14.164 11.2241 14.0793C11.2193 14.07 11.2 14.0298 11.1881 13.8839C11.1755 13.7302 11.175 13.5262 11.175 13.2V12.3C11.175 11.9738 11.1755 11.7698 11.1881 11.6161C11.2 11.4702 11.2193 11.43 11.2241 11.4207C11.2672 11.336 11.336 11.2672 11.4207 11.224C11.43 11.2193 11.4702 11.2 11.6161 11.1881C11.7698 11.1755 11.9738 11.175 12.3 11.175H13.2C13.5262 11.175 13.7302 11.1755 13.8839 11.1881C14.0298 11.2 14.07 11.2193 14.0793 11.224C14.164 11.2672 14.2328 11.336 14.276 11.4207C14.2807 11.43 14.3 11.4702 14.3119 11.6161C14.3245 11.7698 14.325 11.9738 14.325 12.3V13.2C14.325 13.5262 14.3245 13.7302 14.3119 13.8839C14.3 14.0298 14.2807 14.07 14.276 14.0793C14.2328 14.164 14.164 14.2328 14.0793 14.276Z" fill="white"/>
</svg>
