<svg width="18" height="18" viewBox="0 0 18 18" fill="none" xmlns="http://www.w3.org/2000/svg">
<path d="M14.1375 5.96248C14.1375 4.78136 13.1811 3.82498 12 3.82498C10.8189 3.82498 9.86251 4.78136 9.86251 5.96248C9.86251 7.14359 10.8189 8.09998 12 8.09998C13.1811 8.09998 14.1375 7.14359 14.1375 5.96248ZM15.4875 5.96248C15.4875 7.88917 13.9267 9.44997 12 9.44997C10.0733 9.44997 8.51251 7.88917 8.51251 5.96248C8.51251 4.03578 10.0733 2.47498 12 2.47498C13.9267 2.47498 15.4875 4.03578 15.4875 5.96248ZM7.42501 13.8214C7.42501 14.398 7.35694 14.325 7.67648 14.325H16.3235C16.6431 14.325 16.575 14.398 16.575 13.8214C16.575 12.402 14.4914 11.55 12 11.55C9.50866 11.55 7.42501 12.402 7.42501 13.8214ZM12 10.2C15.1704 10.2 17.925 11.3263 17.925 13.8214C17.925 15.1231 17.4109 15.675 16.3235 15.675H7.67648C6.58916 15.675 6.07501 15.1231 6.07501 13.8214C6.07501 11.3263 8.8296 10.2 12 10.2ZM7.22731 6.64768C7.49091 6.91128 7.49091 7.33867 7.22731 7.60227L3.47731 11.3523C3.21371 11.6159 2.78632 11.6159 2.52272 11.3523L0.647715 9.47727C0.384111 9.21367 0.384111 8.78628 0.647715 8.52268C0.911319 8.25907 1.33871 8.25907 1.60231 8.52268L3.00001 9.92038L6.27271 6.64768C6.53632 6.38407 6.9637 6.38407 7.22731 6.64768Z" fill="white"/>
</svg>
