<svg width="18" height="18" viewBox="0 0 18 18" fill="none" xmlns="http://www.w3.org/2000/svg">
<path d="M9.9375 2.125C10.1064 2.68813 10.2246 3.25126 11.1607 3.79153C12.209 4.07582 12.7216 3.79364 13.1984 3.47573C13.6956 3.14428 13.8432 3.24008 14.0418 3.43543L14.5243 3.91767C14.7452 4.13864 14.8336 4.22703 14.5243 4.80155C14.2455 5.31934 13.9308 5.80123 14.211 6.84573C14.7513 7.78725 15.3132 7.95012 15.875 8.0625C16.4609 8.17969 16.4976 8.35181 16.4998 8.63036L16.5 9.3125C16.5 9.625 16.5 9.75001 15.875 9.9375C15.3119 10.1064 14.7487 10.2246 14.2085 11.1607C13.9242 12.209 14.2064 12.7216 14.5243 13.1984C14.8557 13.6956 14.7599 13.8432 14.5646 14.0418L14.0823 14.5243C13.8614 14.7452 13.773 14.8336 13.1984 14.5243C12.6807 14.2455 12.1988 13.9308 11.1543 14.211C10.2127 14.7513 10.0499 15.3132 9.9375 15.875C9.82031 16.4609 9.64819 16.4976 9.36964 16.4998L8.80412 16.5C8.77041 16.5 8.73214 16.5 8.6875 16.5C8.375 16.5 8.24999 16.5 8.0625 15.875C7.89357 15.3119 7.77536 14.7487 6.8393 14.2085C5.79103 13.9242 5.27843 14.2064 4.80155 14.5243C4.30436 14.8557 4.15677 14.7599 3.95818 14.5646L3.47573 14.0823C3.25476 13.8614 3.16636 13.773 3.47573 13.1984C3.75454 12.6807 4.06924 12.1988 3.78899 11.1543C3.24869 10.2127 2.68685 10.0499 2.125 9.9375C1.53906 9.82031 1.50244 9.64819 1.50015 9.36964L1.5 8.6875C1.5 8.375 1.5 8.24999 2.125 8.0625C2.68813 7.89357 3.25126 7.77536 3.79153 6.8393C4.07582 5.79103 3.79364 5.27843 3.47573 4.80155C3.14428 4.30436 3.24008 4.15677 3.43543 3.95818L3.91767 3.47573C4.13864 3.25476 4.22703 3.16636 4.80155 3.47573C5.31934 3.75454 5.80123 4.06924 6.84573 3.78899C7.78725 3.24869 7.95012 2.68685 8.0625 2.125C8.17969 1.53906 8.35181 1.50244 8.63036 1.50015L9.3125 1.5C9.625 1.5 9.75001 1.5 9.9375 2.125ZM9 5.4375C7.03249 5.4375 5.4375 7.03249 5.4375 9C5.4375 10.9675 7.03249 12.5625 9 12.5625C10.9675 12.5625 12.5625 10.9675 12.5625 9C12.5625 7.03249 10.9675 5.4375 9 5.4375Z" fill="white"/>
</svg>
