<svg width="35" height="35" viewBox="0 0 35 35" fill="none" xmlns="http://www.w3.org/2000/svg">
<rect width="35" height="35" rx="6" fill="#2B378D" fill-opacity="0.1"/>
<path d="M18.5417 9.86113C18.7294 10.4868 18.8607 11.1125 19.9008 11.7128C21.0655 12.0287 21.6351 11.7152 22.165 11.3619C22.7174 10.9937 22.8814 11.1001 23.102 11.3172L23.6381 11.853C23.8836 12.0985 23.9818 12.1967 23.6381 12.8351C23.3283 13.4104 22.9786 13.9458 23.29 15.1064C23.8904 16.1525 24.5146 16.3335 25.1389 16.4584C25.79 16.5886 25.8306 16.7798 25.8332 17.0893L25.8334 17.8472C25.8334 18.1945 25.8334 18.3334 25.1389 18.5417C24.5132 18.7294 23.8875 18.8607 23.2872 19.9008C22.9713 21.0655 23.2849 21.6351 23.6381 22.165C24.0064 22.7174 23.8999 22.8814 23.6829 23.102L23.1471 23.6381C22.9015 23.8836 22.8033 23.9818 22.165 23.6381C21.5896 23.3283 21.0542 22.9786 19.8937 23.29C18.8475 23.8904 18.6665 24.5146 18.5417 25.1389C18.4115 25.79 18.2202 25.8306 17.9107 25.8332L17.2824 25.8334C17.2449 25.8334 17.2024 25.8334 17.1528 25.8334C16.8056 25.8334 16.6667 25.8334 16.4584 25.1389C16.2707 24.5132 16.1393 23.8875 15.0992 23.2872C13.9345 22.9713 13.3649 23.2849 12.8351 23.6381C12.2826 24.0064 12.1187 23.8999 11.898 23.6829L11.3619 23.1471C11.1164 22.9015 11.0182 22.8033 11.3619 22.165C11.6717 21.5896 12.0214 21.0542 11.71 19.8937C11.1097 18.8475 10.4854 18.6665 9.86113 18.5417C9.21009 18.4115 9.1694 18.2202 9.16686 17.9107L9.16669 17.1528C9.16669 16.8056 9.16669 16.6667 9.86113 16.4584C10.4868 16.2707 11.1125 16.1393 11.7128 15.0992C12.0287 13.9345 11.7152 13.3649 11.3619 12.8351C10.9937 12.2826 11.1001 12.1187 11.3172 11.898L11.853 11.3619C12.0985 11.1164 12.1967 11.0182 12.8351 11.3619C13.4104 11.6717 13.9458 12.0214 15.1064 11.71C16.1525 11.1097 16.3335 10.4854 16.4584 9.86113C16.5886 9.21009 16.7798 9.1694 17.0893 9.16686L17.8472 9.16669C18.1945 9.16669 18.3334 9.16669 18.5417 9.86113ZM17.5 13.5417C15.3139 13.5417 13.5417 15.3139 13.5417 17.5C13.5417 19.6861 15.3139 21.4584 17.5 21.4584C19.6861 21.4584 21.4584 19.6861 21.4584 17.5C21.4584 15.3139 19.6861 13.5417 17.5 13.5417Z" fill="#2B378D"/>
</svg>
