<svg width="18" height="18" viewBox="0 0 18 18" fill="none" xmlns="http://www.w3.org/2000/svg">
<path fill-rule="evenodd" clip-rule="evenodd" d="M6.37498 6.07495C6.37498 4.6252 7.55023 3.44995 8.99998 3.44995C10.4497 3.44995 11.625 4.6252 11.625 6.07495C11.625 7.5247 10.4497 8.69995 8.99998 8.69995C7.55023 8.69995 6.37498 7.5247 6.37498 6.07495ZM8.99998 7.34995C8.29581 7.34995 7.72498 6.77911 7.72498 6.07495C7.72498 5.37079 8.29581 4.79995 8.99998 4.79995C9.70414 4.79995 10.275 5.37079 10.275 6.07495C10.275 6.77911 9.70414 7.34995 8.99998 7.34995Z" fill="white"/>
<path fill-rule="evenodd" clip-rule="evenodd" d="M9.00026 9.825C7.87225 9.825 6.8061 10.0902 5.9987 10.5862C5.19029 11.0829 4.57526 11.863 4.57526 12.866C4.57526 13.4731 4.78412 14.0153 5.21367 14.3981C5.6323 14.7712 6.18405 14.925 6.75026 14.925H11.2503C11.8165 14.925 12.3682 14.7712 12.7869 14.3981C13.2164 14.0153 13.4253 13.4731 13.4253 12.866C13.4253 11.863 12.8102 11.0829 12.0018 10.5862C11.1944 10.0902 10.1283 9.825 9.00026 9.825ZM5.92526 12.866C5.92526 12.478 6.15428 12.0751 6.70539 11.7365C7.25751 11.3973 8.06637 11.175 9.00026 11.175C9.93416 11.175 10.743 11.3973 11.2951 11.7365C11.8462 12.0751 12.0753 12.478 12.0753 12.866C12.0753 13.1554 11.9841 13.3052 11.8887 13.3903C11.7823 13.4851 11.5841 13.575 11.2503 13.575H6.75026C6.41647 13.575 6.21823 13.4851 6.11186 13.3903C6.01641 13.3052 5.92526 13.1554 5.92526 12.866Z" fill="white"/>
<path d="M4.42754 10.275C4.42754 9.90218 4.12533 9.59997 3.75254 9.59997C2.24748 9.59997 0.790039 10.557 0.790039 12.1178C0.790039 13.0651 1.44266 14.175 2.74537 14.175C3.11816 14.175 3.42037 13.8728 3.42037 13.5C3.42037 13.1272 3.11816 12.825 2.74537 12.825C2.54141 12.825 2.408 12.7468 2.31387 12.6345C2.20898 12.5093 2.14004 12.3219 2.14004 12.1178C2.14004 11.5696 2.6945 10.95 3.75254 10.95C4.12533 10.95 4.42754 10.6478 4.42754 10.275Z" fill="white"/>
<path d="M4.73587 4.09425C5.10492 4.04153 5.44683 4.29796 5.49956 4.667C5.55228 5.03605 5.29585 5.37796 4.92681 5.43068C4.47086 5.49583 4.12516 5.88566 4.12516 6.3498C4.12516 6.85924 4.54141 7.27851 5.06266 7.27851C5.43545 7.27851 5.73766 7.58072 5.73766 7.95351C5.73766 8.3263 5.43545 8.62851 5.06266 8.62851C3.80279 8.62851 2.77516 7.61177 2.77516 6.3498C2.77516 5.19876 3.62989 4.25227 4.73587 4.09425Z" fill="white"/>
<path d="M13.5724 10.275C13.5724 9.90218 13.8746 9.59997 14.2474 9.59997C15.7525 9.59997 17.2099 10.557 17.2099 12.1178C17.2099 13.0651 16.5573 14.175 15.2546 14.175C14.8818 14.175 14.5796 13.8728 14.5796 13.5C14.5796 13.1272 14.8818 12.825 15.2546 12.825C15.4585 12.825 15.592 12.7468 15.6861 12.6345C15.791 12.5093 15.8599 12.3219 15.8599 12.1178C15.8599 11.5696 15.3055 10.95 14.2474 10.95C13.8746 10.95 13.5724 10.6478 13.5724 10.275Z" fill="white"/>
<path d="M13.2644 4.09425C12.8954 4.04153 12.5535 4.29796 12.5008 4.667C12.448 5.03605 12.7045 5.37796 13.0735 5.43068C13.5295 5.49583 13.8752 5.88566 13.8752 6.3498C13.8752 6.85924 13.4589 7.27851 12.9377 7.27851C12.5649 7.27851 12.2627 7.58072 12.2627 7.95351C12.2627 8.3263 12.5649 8.62851 12.9377 8.62851C14.1975 8.62851 15.2252 7.61177 15.2252 6.3498C15.2252 5.19876 14.3704 4.25227 13.2644 4.09425Z" fill="white"/>
</svg>
